<svg xmlns="http://www.w3.org/2000/svg" viewBox="3608.009 9578 45.289 45.291">
  <defs>
    <style>
      .cls-1 {
        fill: red;
      }

      .cls-2 {
        fill: #fd0000;
      }
    </style>
  </defs>
  <g id="google-plus-symbol" transform="translate(3607.999 9578)">
    <g id="Group_14" data-name="Group 14" transform="translate(0.01)">
      <path id="Path_124" data-name="Path 124" class="cls-1" d="M26.07,28.838a14.145,14.145,0,0,0-1.592-1.8q-.871-.83-1.742-1.511t-1.592-1.307a6.451,6.451,0,0,1-1.17-1.306,2.493,2.493,0,0,1-.449-1.388,3.058,3.058,0,0,1,.626-1.837,10.738,10.738,0,0,1,1.524-1.66q.9-.8,1.8-1.756a7.926,7.926,0,0,0,1.524-2.518,9.587,9.587,0,0,0,.626-3.579,10.478,10.478,0,0,0-1.062-4.6,8.127,8.127,0,0,0-2.994-3.43h3.674L28.914,0H17.02a24.348,24.348,0,0,0-5.089.545A11.519,11.519,0,0,0,5.562,4.4a10.176,10.176,0,0,0-2.586,6.818,8.715,8.715,0,0,0,2.9,6.7,9.912,9.912,0,0,0,6.954,2.667,15.659,15.659,0,0,0,1.905-.136,5.892,5.892,0,0,1-.19.585q-.136.367-.218.585a2.967,2.967,0,0,0-.136.531,3.717,3.717,0,0,0-.054.64,6.941,6.941,0,0,0,1.742,4.055,32.145,32.145,0,0,0-4.083.368,31.125,31.125,0,0,0-4.219.98A13.106,13.106,0,0,0,3.63,30.117,8.777,8.777,0,0,0,.01,36.8a6.746,6.746,0,0,0,.817,3.307,7.348,7.348,0,0,0,2.1,2.422,12.511,12.511,0,0,0,2.953,1.579,17.132,17.132,0,0,0,3.32.912,19.924,19.924,0,0,0,3.253.272q7.294,0,11.431-3.565a9.948,9.948,0,0,0,3.81-7.676,9.107,9.107,0,0,0-.449-2.9A8.119,8.119,0,0,0,26.07,28.838ZM15.578,18.944a5.285,5.285,0,0,1-2.64-.708A7,7,0,0,1,10.815,16.4a13.232,13.232,0,0,1-1.524-2.545,13.938,13.938,0,0,1-.966-2.831,12.479,12.479,0,0,1-.313-2.695A7.345,7.345,0,0,1,9.4,3.838,4.588,4.588,0,0,1,13.319,1.96a5.215,5.215,0,0,1,3.253,1.116,7.778,7.778,0,0,1,2.286,2.831,17.874,17.874,0,0,1,1.279,3.552,14.641,14.641,0,0,1,.449,3.47A7.329,7.329,0,0,1,19.4,17.3,4.388,4.388,0,0,1,15.578,18.944ZM23.1,39.384a5.355,5.355,0,0,1-2.027,2,10.316,10.316,0,0,1-2.735,1.062,13.39,13.39,0,0,1-3.062.341,14.882,14.882,0,0,1-3.457-.408,13.776,13.776,0,0,1-3.28-1.238,6.82,6.82,0,0,1-2.531-2.286,5.845,5.845,0,0,1-.966-3.307,5.741,5.741,0,0,1,.735-2.912,5.991,5.991,0,0,1,1.878-2.041,10.629,10.629,0,0,1,2.667-1.252,16.99,16.99,0,0,1,2.939-.681,21.558,21.558,0,0,1,2.885-.19,12.741,12.741,0,0,1,1.361.054q.163.11.83.572t.9.626q.231.163.844.626t.871.694q.258.231.748.694a5.224,5.224,0,0,1,.721.8q.231.34.572.83a3.416,3.416,0,0,1,.476.939q.136.449.258.98a4.9,4.9,0,0,1,.122,1.1A5.811,5.811,0,0,1,23.1,39.384Z" transform="translate(-0.01)"/>
      <path id="Path_125" data-name="Path 125" class="cls-2" d="M302.81,6.968V0h-3.484V6.968h-6.968v3.484h6.968v6.968h3.484V10.452h6.967V6.968Z" transform="translate(-264.488)"/>
    </g>
  </g>
</svg>
