<svg xmlns="http://www.w3.org/2000/svg" xmlns:xlink="http://www.w3.org/1999/xlink" viewBox="3690.026 9576 47.736 47.736">
  <defs>
    <style>
      .cls-1 {
        fill: url(#linear-gradient);
      }
    </style>
    <linearGradient id="linear-gradient" x1="0.5" x2="0.5" y2="1" gradientUnits="objectBoundingBox">
      <stop offset="0" stop-color="#f756d1"/>
      <stop offset="0.465" stop-color="#fa0000"/>
      <stop offset="1" stop-color="#ffa000"/>
    </linearGradient>
  </defs>
  <g id="instagram-symbol" transform="translate(3690.025 9576)">
    <path id="Path_126" data-name="Path 126" class="cls-1" d="M45.935,1.8A5.892,5.892,0,0,0,41.615,0H6.124A5.893,5.893,0,0,0,1.8,1.8,5.891,5.891,0,0,0,0,6.122V41.614a5.892,5.892,0,0,0,1.8,4.32,5.894,5.894,0,0,0,4.32,1.8H41.615a6.155,6.155,0,0,0,6.122-6.123V6.122A5.892,5.892,0,0,0,45.935,1.8ZM17.141,17.2A9.378,9.378,0,0,1,23.9,14.482a9.417,9.417,0,0,1,6.79,2.719A8.808,8.808,0,0,1,33.5,23.775a8.806,8.806,0,0,1-2.812,6.572,9.413,9.413,0,0,1-6.79,2.72,9.379,9.379,0,0,1-6.759-2.72,8.806,8.806,0,0,1-2.813-6.572A8.808,8.808,0,0,1,17.141,17.2ZM42.33,40.34a1.811,1.811,0,0,1-.56,1.352,1.852,1.852,0,0,1-1.337.544H7.212a1.858,1.858,0,0,1-1.9-1.9V20.2H9.7a13.382,13.382,0,0,0-.621,4.071,13.647,13.647,0,0,0,4.351,10.179A14.522,14.522,0,0,0,23.9,38.662a14.939,14.939,0,0,0,7.459-1.927A14.511,14.511,0,0,0,36.767,31.5a13.771,13.771,0,0,0,1.989-7.226,13.385,13.385,0,0,0-.622-4.071h4.2V40.34h0Zm0-27.754a2.124,2.124,0,0,1-2.145,2.145H34.778a2.122,2.122,0,0,1-2.144-2.145V7.459a2.087,2.087,0,0,1,.621-1.507,2.046,2.046,0,0,1,1.523-.637h5.407a2.044,2.044,0,0,1,1.523.637,2.085,2.085,0,0,1,.622,1.507Z" transform="translate(0 0)"/>
  </g>
</svg>
