<svg xmlns="http://www.w3.org/2000/svg" viewBox="2929.7 9603.5 312.052 95.148">
  <defs>
    <style>
      .cls-1 {
        fill: #fff;
      }
    </style>
  </defs>
  <g id="Group_8" data-name="Group 8" transform="translate(2681.6 9294)">
    <path id="Path_69" data-name="Path 69" class="cls-1" d="M319.969,374.143c.836-1.672,1.254-4.458,1.254-8.637v-3.9h-1.811v.557a41.017,41.017,0,0,1-.836,9.334c-.7,3.065-2.229,3.065-2.647,3.065-1.672,0-1.95-.836-2.09-.975a13.573,13.573,0,0,1-.557-4.179c0-6.826-.557-11.981-1.811-15.324a18.349,18.349,0,0,0-12.677-11.841c6.13-.975,10.727-2.926,13.792-5.572a13.089,13.089,0,0,0,4.458-10.17c0-3.483-1.811-6.965-5.572-10.17-4.6-4.04-10.866-6.13-18.528-6.13H249.2v1.95h.557c6.826,0,11.284.418,13.234,1.114.975.279,1.114.557,1.114.557.139.279.418.975.418,3.343V370.1c0,2.508-.279,3.343-.418,3.483a3.034,3.034,0,0,1-1.254.975c-1.393.557-5.851.836-13.1.836H249.2v2.09h44.022V375.4h-.557c-2.786,0-5.433,0-7.941-.139a16.976,16.976,0,0,1-4.876-.557c-.7-.279-1.114-.557-1.254-.975-.139-.279-.279-1.115-.279-3.761V342.8H290.3c3.2,0,5.572.557,7.244,1.811,1.672,1.114,2.368,3.483,2.368,6.965a11.983,11.983,0,0,0-.139,2.229v2.229c0,8.219.7,13.652,1.95,16.578,1.672,3.761,5.015,5.572,10.17,5.572C315.929,378.322,318.715,376.79,319.969,374.143Zm-41.653-57.117a15.881,15.881,0,0,1,.279-3.9,1.377,1.377,0,0,1,.975-.975,15.256,15.256,0,0,1,3.065-.279h5.015c5.433,0,9.334,1.114,11.7,3.483,2.368,2.229,3.483,6.269,3.483,11.841,0,5.015-1.393,8.637-4.179,10.727-2.368,1.811-6.13,2.647-11.145,2.647h-9.334V317.026Z" transform="translate(0.432 0.275)"/>
    <path id="Path_70" data-name="Path 70" class="cls-1" d="M326.164,374c-1.811-.975-2.647-2.647-2.647-5.015a17.008,17.008,0,0,1,1.254-5.712l3.2-8.776h19.5l6.548,17.832.139.975c0,.418-.139,1.254-2.508,1.811-1.95.418-5.572.557-10.866.557h-.557v2.09h40.121v-2.09H379.8c-6.408,0-8.637-.418-9.334-.7s-1.672-1.393-2.926-4.736L344.692,309.5h-2.786l-17.971,48.619c-2.368,6.13-4.179,10.309-5.712,12.259-2.508,3.483-6.269,5.154-10.866,5.154H306.8v2.09h27.862v-2.09H334.1C330.761,375.532,327.975,375.115,326.164,374Zm2.508-21.593,8.916-24.24,8.916,24.24Z" transform="translate(23.074)"/>
    <path id="Path_71" data-name="Path 71" class="cls-1" d="M365.9,377.386h60.6V345.345h-2.368v.418c-1.114,9.891-3.065,17-5.99,21.314-2.647,3.761-6.687,6.269-12.12,7.244q-4.388.836-18.807.836c-2.09,0-2.647-.279-2.786-.418.139-.418.975-1.95,5.015-7.8L427.474,310.1h-52.38v26.747h2.368v-.418c1.254-11.423,4.458-18.807,9.473-21.872,2.786-1.672,9.194-2.508,18.946-2.508,2.647,0,2.926.418,2.926.418h0c0,.279-.557,1.532-5.015,8.08Z" transform="translate(46.306 0.236)"/>
    <path id="Path_72" data-name="Path 72" class="cls-1" d="M445.862,375.493H445.3a17.689,17.689,0,0,1-8.08-1.532c-1.811-.975-2.647-2.647-2.647-5.015a17.007,17.007,0,0,1,1.254-5.712l3.2-8.776h19.643l6.548,17.832.139.975c0,.418-.139,1.254-2.508,1.811-1.95.418-5.572.557-10.866.557h-.557v2.09h39.982v-2.09h-.557c-6.408,0-8.637-.418-9.334-.7s-1.672-1.393-2.926-4.737l-22.986-60.6h-2.786l-17.971,48.619c-2.368,6.13-4.179,10.309-5.712,12.259-2.507,3.483-6.269,5.154-10.866,5.154H418v2.09h27.862Zm-5.99-23.125,8.916-24.24,8.916,24.24Z" transform="translate(66.786 0.039)"/>
    <path id="Path_73" data-name="Path 73" class="cls-1" d="M250.886,363.714h.557a12.74,12.74,0,0,1,2.368.139c.836.139,1.254.139,1.254.279h.139v12.259a18.91,18.91,0,0,1-.279,4.319c-.139.557-.7,1.254-2.229,1.254a2.934,2.934,0,0,1-1.811-.7,1.442,1.442,0,0,1-.7-.975,1.767,1.767,0,0,0,.836.139,3.329,3.329,0,0,0,1.95-.7,2.437,2.437,0,0,0,.975-1.95,2.338,2.338,0,0,0-.836-1.95,2.529,2.529,0,0,0-1.95-.836,2.353,2.353,0,0,0-1.393.418,3.419,3.419,0,0,0-1.672,3.2,4.809,4.809,0,0,0,.418,1.811,5.013,5.013,0,0,0,1.532,1.95,4.587,4.587,0,0,0,2.647.836,7.853,7.853,0,0,0,5.433-1.95,6.719,6.719,0,0,0,2.09-5.154V364.132h.139a12.544,12.544,0,0,1,3.343-.279h.557V362.6H251.025v1.114Z" transform="translate(0 20.873)"/>
    <path id="Path_74" data-name="Path 74" class="cls-1" d="M289.243,373.366q-.418,4.388-2.09,6.269c-1.114,1.254-2.786,1.811-5.015,1.811h-2.229c-.418,0-.7-.139-.975-.139a.486.486,0,0,1-.279-.139h0v-8.359a6.176,6.176,0,0,1,3.2.557c.418.418,1.114,1.532,1.393,4.736v.418h1.254V365.7h-1.254v.418c-.418,3.343-.975,4.458-1.393,4.876a8.571,8.571,0,0,1-3.2.557v-7.383l.139-.139a8.224,8.224,0,0,1,1.95-.279h2.368a4.4,4.4,0,0,1,4.04,2.508,9.384,9.384,0,0,1,1.114,4.179V371h1.393v-8.5H269.6v1.254h.557a11.258,11.258,0,0,1,2.229.139c.836.139,1.114.139,1.254.279h.139v17.135l-.139.139a12.3,12.3,0,0,1-3.483.279H269.6v1.254h21.175v-10.03h-1.393Z" transform="translate(8.451 20.834)"/>
    <path id="Path_75" data-name="Path 75" class="cls-1" d="M318.329,363.754h.557c2.925,0,3.2,1.114,3.2,2.09a5.688,5.688,0,0,1-.557,2.229l-2.925,7.941-3.622-11.284c0-.139-.139-.279-.139-.418s0-.279.418-.279a8.737,8.737,0,0,1,2.508-.139h.557v-1.254H295.9v1.254h.557a10.222,10.222,0,0,1,2.368.139s.279.139.7,1.254l6.965,17.832H308.3l3.622-13.374,4.179,13.374h1.811l5.154-14.488c.836-2.368,1.114-2.786,1.114-2.925a2.968,2.968,0,0,1,2.786-1.95h.557V362.5h-9.194Zm-8.637.139c.139,0,.418.279.7,1.114l.557,1.95-2.368,8.916-4.319-11.284a1.054,1.054,0,0,1-.139-.557s0-.139.418-.279a8.733,8.733,0,0,1,2.507-.139h.279C309.134,363.754,309.552,363.893,309.692,363.893Z" transform="translate(18.79 20.834)"/>
    <path id="Path_76" data-name="Path 76" class="cls-1" d="M348.443,373.366q-.418,4.388-2.09,6.269c-1.114,1.254-2.786,1.811-5.015,1.811h-2.229c-.418,0-.7-.139-.975-.139a.486.486,0,0,1-.279-.139h0v-8.359a6.176,6.176,0,0,1,3.2.557c.418.418,1.114,1.532,1.393,4.736v.418h1.254V365.7h-1.254v.418c-.418,3.343-.975,4.458-1.393,4.876a8.572,8.572,0,0,1-3.2.557v-7.383h0l.139-.139a8.224,8.224,0,0,1,1.95-.279h2.368a4.4,4.4,0,0,1,4.04,2.508,8.929,8.929,0,0,1,1.114,4.179V371h1.393v-8.5H328.8v1.254h.557a11.258,11.258,0,0,1,2.229.139c.836.139,1.114.139,1.254.279h.139v17.135l-.139.139a12.3,12.3,0,0,1-3.483.279H328.8v1.254h21.175v-10.03h-1.393Z" transform="translate(31.722 20.834)"/>
    <path id="Path_77" data-name="Path 77" class="cls-1" d="M375.082,373.127c0,2.925-.557,5.015-1.811,6.408a6.822,6.822,0,0,1-5.294,2.09,16.918,16.918,0,0,1-3.483-.279h-.139v-16.3c0-.418,0-.7.139-.836a.431.431,0,0,0,.279-.139c.139,0,.557-.139,1.254-.279.7,0,1.532-.139,2.647-.139h.557V362.4H355.439v1.254H356a11.261,11.261,0,0,1,2.229.139c.836.139,1.114.139,1.254.279h.139v17.135l-.279.139a5.748,5.748,0,0,1-1.254.139c-.557,0-1.393.139-2.229.139H355.3v1.254h21.314V372.57h-1.393v.557Z" transform="translate(42.139 20.794)"/>
    <path id="Path_78" data-name="Path 78" class="cls-1" d="M401.382,373.127c0,2.925-.557,5.015-1.811,6.408a6.822,6.822,0,0,1-5.294,2.09,16.917,16.917,0,0,1-3.483-.279h-.139v-16.3c0-.418,0-.7.139-.836a.431.431,0,0,0,.279-.139c.139,0,.557-.139,1.254-.279.7,0,1.532-.139,2.647-.139h.557V362.4H381.739v1.254h.557a11.26,11.26,0,0,1,2.229.139c.836.139,1.114.139,1.254.279h.139v17.135h0l-.279.139a5.748,5.748,0,0,1-1.254.139c-.557,0-1.393.139-2.229.139H381.6v1.254h21.314V372.57h-1.393v.557Z" transform="translate(52.477 20.794)"/>
    <path id="Path_79" data-name="Path 79" class="cls-1" d="M427.443,373.366q-.418,4.388-2.09,6.269c-1.114,1.254-2.786,1.811-5.015,1.811h-2.229c-.418,0-.7-.139-.975-.139a.487.487,0,0,1-.279-.139h0v-8.359a6.176,6.176,0,0,1,3.2.557c.418.418,1.114,1.532,1.393,4.736v.418h1.254V365.7h-1.254v.418c-.418,3.343-.975,4.458-1.393,4.876a8.572,8.572,0,0,1-3.2.557v-7.383h0l.139-.139a8.223,8.223,0,0,1,1.95-.279h2.368a4.4,4.4,0,0,1,4.04,2.508,9.383,9.383,0,0,1,1.114,4.179V371h1.393v-8.5H407.8v1.254h.557a11.258,11.258,0,0,1,2.229.139c.836.139,1.114.139,1.254.279h.139v17.135h0l-.139.139a12.3,12.3,0,0,1-3.483.279H407.8v1.254h21.175v-10.03h-1.393Z" transform="translate(62.776 20.834)"/>
    <path id="Path_80" data-name="Path 80" class="cls-1" d="M454.857,377.963a11.759,11.759,0,0,1-.279,2.647c-.139.418-.279.7-.418.7,0,0-.279,0-.279-.139a5.268,5.268,0,0,1-.139-1.114,12.748,12.748,0,0,0-.557-4.6,5.363,5.363,0,0,0-2.786-3.2,6.371,6.371,0,0,0,3.065-1.532,4.022,4.022,0,0,0-.418-6.408,8.277,8.277,0,0,0-5.712-1.811H434.1v1.254h.557a14.346,14.346,0,0,1,3.761.279h.139v17l-.139.139c-.279.139-.975.279-3.761.279H434.1V382.7h13.652v-1.254h-2.786a3.331,3.331,0,0,1-1.254-.139.136.136,0,0,1-.139-.139v-8.5h3.2a3.69,3.69,0,0,1,1.95.418c.418.279.557.836.557,1.672v1.393a13.939,13.939,0,0,0,.557,5.015c.557,1.254,1.672,1.811,3.343,1.811a2.7,2.7,0,0,0,2.647-1.393,6.109,6.109,0,0,0,.418-2.647v-1.532h-1.393Zm-11.284-13.1c0-.7,0-.975.139-1.115a3.037,3.037,0,0,1,.836-.139h1.532a4.908,4.908,0,0,1,3.2.836,4.6,4.6,0,0,1,.975,3.2,3.572,3.572,0,0,1-1.114,2.926,5.855,5.855,0,0,1-3.065.7h-2.368v-6.408Z" transform="translate(73.115 20.834)"/>
    <path id="Path_81" data-name="Path 81" class="cls-1" d="M474.274,371.97a20.088,20.088,0,0,0-5.154-1.811,11.6,11.6,0,0,1-4.04-1.532,2.389,2.389,0,0,1-1.393-2.229,2.16,2.16,0,0,1,1.254-2.09,4.811,4.811,0,0,1,2.508-.7,5.2,5.2,0,0,1,3.761,1.672,7.485,7.485,0,0,1,2.09,4.179v.279l1.254.418V361.8l-.836.7c-.139.139-.7.557-1.672,1.532a16.174,16.174,0,0,1-1.532-.975,8.707,8.707,0,0,0-3.483-.557,6.184,6.184,0,0,0-6.13,6.13,4.878,4.878,0,0,0,2.09,4.319,12.387,12.387,0,0,0,4.6,1.811,25.877,25.877,0,0,1,4.458,1.532,3.014,3.014,0,0,1,1.672,2.647,2.913,2.913,0,0,1-1.254,2.368,3.783,3.783,0,0,1-2.368.836,6.159,6.159,0,0,1-4.458-1.532,7.809,7.809,0,0,1-1.393-2.09,17.421,17.421,0,0,1-1.254-4.04l-.139-.418-1.114.139v9.891l.836-.836s.139-.139,1.672-2.09a5.835,5.835,0,0,0,2.229,1.532,9.149,9.149,0,0,0,3.483.557,6.533,6.533,0,0,0,4.319-1.532,6.122,6.122,0,0,0,2.229-5.015A5.955,5.955,0,0,0,474.274,371.97Z" transform="translate(83.649 20.559)"/>
  </g>
</svg>
