<svg xmlns="http://www.w3.org/2000/svg" viewBox="2868.5 334.386 429.4 130.929">
  <g id="Group_6" data-name="Group 6" transform="translate(2620.4 24.886)">
    <path id="Path_69" data-name="Path 69" d="M346.582,398.189c1.15-2.3,1.725-6.134,1.725-11.885v-5.368h-2.492v.767a56.441,56.441,0,0,1-1.15,12.844c-.958,4.217-3.067,4.217-3.642,4.217-2.3,0-2.684-1.15-2.875-1.342a18.677,18.677,0,0,1-.767-5.751c0-9.393-.767-16.486-2.492-21.087a25.249,25.249,0,0,0-17.444-16.294c8.435-1.342,14.761-4.026,18.978-7.668a18.011,18.011,0,0,0,6.134-13.994c0-4.792-2.492-9.585-7.668-13.994-6.326-5.559-14.952-8.435-25.5-8.435H249.2v2.684h.767c9.393,0,15.527.575,18.211,1.534,1.342.383,1.534.767,1.534.767.192.383.575,1.342.575,4.6v72.845c0,3.45-.383,4.6-.575,4.792a4.175,4.175,0,0,1-1.725,1.342c-1.917.767-8.051,1.15-18.019,1.15H249.2v2.875h60.576v-2.875h-.767c-3.834,0-7.476,0-10.927-.192a23.36,23.36,0,0,1-6.709-.767c-.958-.383-1.534-.767-1.725-1.342-.192-.383-.383-1.534-.383-5.176V355.057H305.75c4.409,0,7.668.767,9.968,2.492,2.3,1.534,3.259,4.792,3.259,9.585a16.488,16.488,0,0,0-.192,3.067v3.067c0,11.31.958,18.786,2.684,22.812,2.3,5.176,6.9,7.668,13.994,7.668C341.023,403.94,344.856,401.831,346.582,398.189Zm-57.317-78.6a21.855,21.855,0,0,1,.383-5.367,1.894,1.894,0,0,1,1.342-1.342,20.987,20.987,0,0,1,4.217-.383h6.9c7.476,0,12.844,1.534,16.1,4.792,3.259,3.067,4.792,8.626,4.792,16.294,0,6.9-1.917,11.885-5.751,14.761-3.259,2.492-8.435,3.642-15.336,3.642H289.073v-32.4Z" transform="translate(1.009 0.642)"/>
    <path id="Path_70" data-name="Path 70" d="M333.446,398.255c-2.492-1.342-3.642-3.642-3.642-6.9a23.4,23.4,0,0,1,1.725-7.86l4.409-12.077h26.837l9.01,24.537.192,1.342c0,.575-.192,1.725-3.451,2.492-2.684.575-7.668.767-14.952.767h-.767v2.875h55.209v-2.875h-.767c-8.818,0-11.885-.575-12.844-.958s-2.3-1.917-4.026-6.518L358.941,309.5h-3.834l-24.729,66.9c-3.259,8.435-5.751,14.185-7.86,16.869-3.451,4.792-8.626,7.093-14.952,7.093H306.8v2.875h38.339v-2.875h-.767C339.772,400.364,335.938,399.789,333.446,398.255Zm3.451-29.713,12.269-33.355,12.269,33.355Z" transform="translate(53.826)"/>
    <path id="Path_71" data-name="Path 71" d="M365.9,402.689h83.388V358.6h-3.259v.575c-1.534,13.61-4.217,23.387-8.243,29.329-3.642,5.176-9.2,8.626-16.678,9.968q-6.038,1.15-25.879,1.15c-2.875,0-3.642-.383-3.834-.575.192-.575,1.342-2.684,6.9-10.735L450.63,310.1H378.552v36.806h3.259v-.575c1.725-15.719,6.134-25.879,13.035-30.1,3.834-2.3,12.652-3.451,26.071-3.451,3.642,0,4.026.575,4.026.575h0c0,.383-.767,2.109-6.9,11.118Z" transform="translate(108.018 0.55)"/>
    <path id="Path_72" data-name="Path 72" d="M456.339,400.272h-.767c-4.792,0-8.626-.767-11.118-2.109s-3.642-3.642-3.642-6.9a23.4,23.4,0,0,1,1.725-7.86l4.409-12.077h27.029l9.01,24.537.192,1.342c0,.575-.192,1.725-3.451,2.492-2.684.575-7.668.767-14.952.767h-.767v2.875h55.017v-2.875h-.767c-8.818,0-11.885-.575-12.844-.958s-2.3-1.917-4.026-6.518L469.758,309.6h-3.834L441.2,376.5c-3.259,8.435-5.751,14.186-7.86,16.869-3.45,4.792-8.626,7.093-14.952,7.093H418v2.875h38.339ZM448.1,368.451,460.365,335.1l12.269,33.355Z" transform="translate(155.792 0.092)"/>
    <path id="Path_73" data-name="Path 73" d="M251.934,364.134h.767a17.533,17.533,0,0,1,3.259.192c1.15.192,1.725.192,1.725.383h.192v16.869a26.022,26.022,0,0,1-.383,5.943c-.192.767-.958,1.725-3.067,1.725a4.038,4.038,0,0,1-2.492-.958,1.984,1.984,0,0,1-.958-1.342,2.432,2.432,0,0,0,1.15.192,4.581,4.581,0,0,0,2.684-.958,3.354,3.354,0,0,0,1.342-2.684,3.217,3.217,0,0,0-1.15-2.684,3.481,3.481,0,0,0-2.684-1.15,3.239,3.239,0,0,0-1.917.575,4.7,4.7,0,0,0-2.3,4.409,6.618,6.618,0,0,0,.575,2.492,6.9,6.9,0,0,0,2.109,2.684,6.312,6.312,0,0,0,3.642,1.15,10.807,10.807,0,0,0,7.476-2.684,9.245,9.245,0,0,0,2.875-7.093V364.709h.192a17.259,17.259,0,0,1,4.6-.383h.767V362.6H252.126v1.534Z" transform="translate(0 48.691)"/>
    <path id="Path_74" data-name="Path 74" d="M296.629,377.452q-.575,6.039-2.875,8.626c-1.534,1.725-3.834,2.492-6.9,2.492h-3.067c-.575,0-.958-.192-1.342-.192a.669.669,0,0,1-.383-.192h0v-11.5c3.067,0,4.026.575,4.409.767.575.575,1.534,2.109,1.917,6.518v.575h1.725V366.909h-1.725v.575c-.575,4.6-1.342,6.134-1.917,6.709-.383.192-1.342.575-4.409.767V364.8l.192-.192a11.316,11.316,0,0,1,2.684-.383h3.259c2.492,0,4.217,1.15,5.559,3.451a12.912,12.912,0,0,1,1.534,5.751v.767H297.2V362.5H269.6v1.725h.767a15.492,15.492,0,0,1,3.067.192c1.15.192,1.534.192,1.725.383h.192v23.579l-.192.192a16.929,16.929,0,0,1-4.792.383H269.6v1.725h29.138v-13.8h-1.917Z" transform="translate(19.715 48.599)"/>
    <path id="Path_75" data-name="Path 75" d="M326.763,364.225h.767c4.026,0,4.409,1.534,4.409,2.875a7.828,7.828,0,0,1-.767,3.067l-4.026,10.927-4.984-15.527c0-.192-.192-.383-.192-.575s0-.383.575-.383a12.025,12.025,0,0,1,3.451-.192h.767v-1.725H295.9v1.725h.767a14.068,14.068,0,0,1,3.259.192s.383.192.958,1.725l9.585,24.537h2.492l4.984-18.4,5.751,18.4h2.492l7.093-19.937c1.15-3.259,1.533-3.834,1.533-4.026a4.084,4.084,0,0,1,3.834-2.684h.767V362.5H326.763Zm-11.885.192c.192,0,.575.383.958,1.533l.767,2.684L313.344,380.9,307.4,365.375a1.449,1.449,0,0,1-.192-.767s0-.192.575-.383a12.019,12.019,0,0,1,3.45-.192h.383C314.111,364.225,314.686,364.417,314.878,364.417Z" transform="translate(43.831 48.599)"/>
    <path id="Path_76" data-name="Path 76" d="M355.829,377.452q-.575,6.039-2.875,8.626c-1.534,1.725-3.834,2.492-6.9,2.492h-3.067c-.575,0-.958-.192-1.342-.192a.669.669,0,0,1-.383-.192h0v-11.5c3.067,0,4.026.575,4.409.767.575.575,1.534,2.109,1.917,6.518v.575h1.725V366.909h-1.725v.575c-.575,4.6-1.342,6.134-1.917,6.709-.383.192-1.342.575-4.409.767V364.8h0l.192-.192a11.315,11.315,0,0,1,2.684-.383h3.259c2.492,0,4.217,1.15,5.559,3.451a12.286,12.286,0,0,1,1.534,5.751v.767H356.4V362.5H328.8v1.725h.767a15.491,15.491,0,0,1,3.067.192c1.15.192,1.534.192,1.725.383h.192v23.579l-.192.192a16.93,16.93,0,0,1-4.792.383H328.8v1.725h29.138v-13.8h-1.917Z" transform="translate(73.999 48.599)"/>
    <path id="Path_77" data-name="Path 77" d="M382.521,377.161c0,4.026-.767,6.9-2.492,8.818a9.388,9.388,0,0,1-7.284,2.875,23.279,23.279,0,0,1-4.792-.383h-.192V366.042c0-.575,0-.958.192-1.15a.594.594,0,0,0,.383-.192c.192,0,.767-.192,1.725-.383.958,0,2.109-.192,3.642-.192h.767V362.4H355.492v1.725h.767a15.5,15.5,0,0,1,3.067.192c1.15.192,1.534.192,1.725.383h.192v23.579l-.383.192a7.909,7.909,0,0,1-1.725.192c-.767,0-1.917.192-3.067.192H355.3v1.725h29.33V376.394h-1.917v.767Z" transform="translate(98.299 48.507)"/>
    <path id="Path_78" data-name="Path 78" d="M408.821,377.161c0,4.026-.767,6.9-2.492,8.818a9.388,9.388,0,0,1-7.284,2.875,23.279,23.279,0,0,1-4.792-.383h-.192V366.042c0-.575,0-.958.192-1.15a.594.594,0,0,0,.383-.192c.192,0,.767-.192,1.725-.383.958,0,2.109-.192,3.642-.192h.767V362.4H381.792v1.725h.767a15.493,15.493,0,0,1,3.067.192c1.15.192,1.534.192,1.725.383h.192v23.579h0l-.383.192a7.909,7.909,0,0,1-1.725.192c-.767,0-1.917.192-3.067.192H381.6v1.725h29.33V376.394h-1.917v.767Z" transform="translate(122.415 48.507)"/>
    <path id="Path_79" data-name="Path 79" d="M434.829,377.452q-.575,6.039-2.875,8.626c-1.534,1.725-3.834,2.492-6.9,2.492h-3.067c-.575,0-.959-.192-1.342-.192a.669.669,0,0,1-.383-.192h0v-11.5c3.067,0,4.026.575,4.409.767.575.575,1.534,2.109,1.917,6.518v.575h1.725V366.909h-1.725v.575c-.575,4.6-1.342,6.134-1.917,6.709-.383.192-1.342.575-4.409.767V364.8h0l.192-.192a11.314,11.314,0,0,1,2.684-.383h3.259c2.492,0,4.217,1.15,5.559,3.451a12.911,12.911,0,0,1,1.534,5.751v.767H435.4V362.5H407.8v1.725h.767a15.491,15.491,0,0,1,3.067.192c1.15.192,1.534.192,1.725.383h.192v23.579h0l-.192.192a16.931,16.931,0,0,1-4.792.383H407.8v1.725h29.138v-13.8h-1.917Z" transform="translate(146.439 48.599)"/>
    <path id="Path_80" data-name="Path 80" d="M462.663,383.778a16.179,16.179,0,0,1-.383,3.642c-.192.575-.383.958-.575.958,0,0-.383,0-.383-.192a7.252,7.252,0,0,1-.192-1.534,17.543,17.543,0,0,0-.767-6.326,7.38,7.38,0,0,0-3.834-4.409,8.766,8.766,0,0,0,4.217-2.109,5.534,5.534,0,0,0-.575-8.818c-1.917-1.725-4.6-2.492-7.86-2.492H434.1v1.725h.767a19.743,19.743,0,0,1,5.176.383h.192V388l-.192.192c-.383.192-1.342.383-5.176.383H434.1V390.3h18.786v-1.725h-3.834a4.583,4.583,0,0,1-1.725-.192.188.188,0,0,1-.192-.192V376.494h4.409a5.078,5.078,0,0,1,2.684.575c.575.383.767,1.15.767,2.3v1.917c0,3.451.192,5.559.767,6.9.767,1.725,2.3,2.492,4.6,2.492A3.709,3.709,0,0,0,464,388.762a8.408,8.408,0,0,0,.575-3.642v-2.109h-1.917Zm-15.527-18.019c0-.959,0-1.342.192-1.534a4.179,4.179,0,0,1,1.15-.192h2.109a6.754,6.754,0,0,1,4.409,1.15,6.333,6.333,0,0,1,1.342,4.409,4.915,4.915,0,0,1-1.534,4.026,8.056,8.056,0,0,1-4.217.959h-3.259v-8.818Z" transform="translate(170.555 48.599)"/>
    <path id="Path_81" data-name="Path 81" d="M479.3,375.794c-1.15-.767-3.451-1.534-7.093-2.492a15.955,15.955,0,0,1-5.559-2.109,3.287,3.287,0,0,1-1.917-3.067,2.973,2.973,0,0,1,1.725-2.875,6.62,6.62,0,0,1,3.451-.958,7.151,7.151,0,0,1,5.176,2.3,10.3,10.3,0,0,1,2.875,5.751v.383l1.725.575V361.8l-1.15.958c-.192.192-.958.767-2.3,2.109a22.265,22.265,0,0,1-2.109-1.342,11.98,11.98,0,0,0-4.792-.767,8.509,8.509,0,0,0-8.435,8.435,6.712,6.712,0,0,0,2.875,5.943c1.15.958,3.259,1.725,6.326,2.492a35.612,35.612,0,0,1,6.134,2.109,4.147,4.147,0,0,1,2.3,3.642,4.008,4.008,0,0,1-1.725,3.259,5.206,5.206,0,0,1-3.259,1.15,8.474,8.474,0,0,1-6.134-2.109A10.744,10.744,0,0,1,465.5,384.8a23.972,23.972,0,0,1-1.725-5.559l-.192-.575-1.534.192v13.61l1.15-1.15s.192-.192,2.3-2.875a8.029,8.029,0,0,0,3.067,2.109,12.59,12.59,0,0,0,4.792.767,8.99,8.99,0,0,0,5.943-2.109,8.424,8.424,0,0,0,3.067-6.9C482.178,379.436,481.22,377.136,479.3,375.794Z" transform="translate(195.13 47.957)"/>
  </g>
</svg>
