<svg xmlns="http://www.w3.org/2000/svg" viewBox="2169.379 351 16.521 26.429">
  <defs>
    <style>
      .cls-1 {
        fill-rule: evenodd;
      }
    </style>
  </defs>
  <path id="Path_135" data-name="Path 135" class="cls-1" d="M214.14,299.363c-.438-.857-.856-1.671-1.272-2.486q-3.032-5.945-6.06-11.892a8.253,8.253,0,0,1,2.733-10.607,7.86,7.86,0,0,1,7.051-1.031,7.99,7.99,0,0,1,5.633,6.211,8.3,8.3,0,0,1-.9,5.777c-1.968,3.8-3.9,7.613-5.839,11.422q-.615,1.2-1.231,2.408C214.227,299.219,214.193,299.272,214.14,299.363Zm0-23.1A4.954,4.954,0,1,0,219.1,281.2,4.962,4.962,0,0,0,214.144,276.261Z" transform="translate(1963.489 78.066)"/>
</svg>
