<svg xmlns="http://www.w3.org/2000/svg" viewBox="3775.01 9576 47.727 47.729">
  <defs>
    <style>
      .cls-1 {
        fill: #f90707;
      }
    </style>
  </defs>
  <g id="pinterest-logo" transform="translate(3775.002 9576)">
    <path id="Path_127" data-name="Path 127" class="cls-1" d="M44.538,11.886A23.764,23.764,0,0,0,35.852,3.2,23.342,23.342,0,0,0,23.873,0,23.343,23.343,0,0,0,11.895,3.2a23.755,23.755,0,0,0-8.685,8.685,23.34,23.34,0,0,0-3.2,11.979A23.133,23.133,0,0,0,3.954,37.009,23.783,23.783,0,0,0,14.3,45.741a20.587,20.587,0,0,1,.4-5.5l3.077-12.99a8.287,8.287,0,0,1-.777-3.791,7.118,7.118,0,0,1,1.336-4.412A3.972,3.972,0,0,1,21.6,17.277,2.916,2.916,0,0,1,24,18.3a3.938,3.938,0,0,1,.839,2.579,9.65,9.65,0,0,1-.358,2.346q-.357,1.383-.932,3.2t-.823,2.905a3.528,3.528,0,0,0,.715,3.248,3.8,3.8,0,0,0,3.046,1.352q3.325,0,5.454-3.7a17.731,17.731,0,0,0,2.128-8.981,8.809,8.809,0,0,0-2.626-6.619,10.069,10.069,0,0,0-7.318-2.549A11.314,11.314,0,0,0,12.374,23.523a7.068,7.068,0,0,0,1.585,4.692,1.418,1.418,0,0,1,.342,1.336q-.062.187-.249.932c-.124.5-.207.819-.248.963q-.248.994-1.181.621a7.011,7.011,0,0,1-3.635-3.449,12.426,12.426,0,0,1-1.243-5.686,13.556,13.556,0,0,1,.668-4.164,14.2,14.2,0,0,1,2.082-4.024,16.351,16.351,0,0,1,3.387-3.434,15.892,15.892,0,0,1,4.8-2.392,19.95,19.95,0,0,1,6.091-.9A15.989,15.989,0,0,1,32.7,9.975a13.987,13.987,0,0,1,5.361,5.065,12.787,12.787,0,0,1,1.849,6.65,20.907,20.907,0,0,1-1.615,8.39,13.775,13.775,0,0,1-4.568,5.857,11.187,11.187,0,0,1-6.713,2.129,7.372,7.372,0,0,1-3.542-.885,5.181,5.181,0,0,1-2.268-2.1q-1.4,5.5-1.678,6.556a19.114,19.114,0,0,1-2.424,5.1A23.863,23.863,0,0,0,35.85,44.528a23.751,23.751,0,0,0,8.685-8.684,23.347,23.347,0,0,0,3.2-11.979A23.337,23.337,0,0,0,44.538,11.886Z" transform="translate(0 0)"/>
  </g>
</svg>
