<svg xmlns="http://www.w3.org/2000/svg" viewBox="3859.744 9578 56.441 45.84">
  <defs>
    <style>
      .cls-1 {
        fill: #60a3fe;
      }
    </style>
  </defs>
  <g id="twitter-black-shape" transform="translate(3859.745 9535.741)">
    <path id="Path_128" data-name="Path 128" class="cls-1" d="M56.44,47.7a23.081,23.081,0,0,1-6.661,1.791,11.232,11.232,0,0,0,5.086-6.375,22.706,22.706,0,0,1-7.342,2.793,11.6,11.6,0,0,0-16.636-.269A11.148,11.148,0,0,0,27.5,53.826a12.839,12.839,0,0,0,.286,2.65,32.233,32.233,0,0,1-13.3-3.563A32.8,32.8,0,0,1,3.938,44.372a11.592,11.592,0,0,0-.179,11.353A11.555,11.555,0,0,0,7.52,59.843a11.475,11.475,0,0,1-5.229-1.469v.143a11.179,11.179,0,0,0,2.632,7.36,11.38,11.38,0,0,0,6.643,3.993,11.985,11.985,0,0,1-3.044.394,14.756,14.756,0,0,1-2.185-.178,11.593,11.593,0,0,0,10.815,8.022A22.649,22.649,0,0,1,2.792,83.049,24.628,24.628,0,0,1,0,82.906,32.125,32.125,0,0,0,17.762,88.1a33.8,33.8,0,0,0,11.566-1.951,29.4,29.4,0,0,0,9.24-5.229,34.989,34.989,0,0,0,6.607-7.538,33.616,33.616,0,0,0,4.137-8.9,32.876,32.876,0,0,0,1.361-9.294q0-1-.036-1.5A24.225,24.225,0,0,0,56.44,47.7Z"/>
  </g>
</svg>
